<svg xmlns="http://www.w3.org/2000/svg" viewBox="0 0 80 80" fill="none">
  <path fill-rule="evenodd" clip-rule="evenodd"
        d="M10 6 L34 6 Q38 6 38 10 L38 34 Q38 38 34 38 L10 38 Q6 38 6 34 L6 10 Q6 6 10 6 Z M21.30 15.10 Q22.00 14.60 22.70 15.10 L30.00 20.90 L30.00 32.60 Q30.00 38.00 31.50 38.00 L12.50 38.00 Q14.00 38.00 14.00 32.60 L14.00 20.90 L21.30 15.10 Z"
        fill="#0a0e12"/>
  <rect x="42" y="6"  width="32" height="32" rx="4" fill="#0a0e12"/>
  <rect x="6"  y="42" width="32" height="32" rx="4" fill="#0a0e12"/>
  <rect x="42" y="42" width="32" height="32" rx="4" fill="#126D85"/>
</svg>
